<svg width="52" height="52" viewBox="0 0 52 52" fill="none" xmlns="http://www.w3.org/2000/svg">
<circle cx="24" cy="26" r="24" fill="#E6EEF9"/>
<circle cx="26" cy="26" r="26" fill="#EEF5FF"/>
<g filter="url(#filter0_d)">
<path d="M16 39H36.2941C38.5033 39 40.2941 37.2091 40.2941 35V17C40.2941 14.7909 38.5033 13 36.2941 13H21.9412L12 22.9412L12 35C12 37.2091 13.7909 39 16 39Z" fill="white"/>
</g>
<rect x="15.0588" y="29.8237" width="3.82353" height="1.52941" rx="0.764706" fill="#7C90F3"/>
<rect x="15.0588" y="33.647" width="3.82353" height="1.52941" rx="0.764706" fill="#C1CAF8"/>
<rect x="20.4117" y="29.8237" width="8.41177" height="1.52941" rx="0.764706" fill="#7C90F3"/>
<rect x="20.4117" y="33.647" width="8.41177" height="1.52941" rx="0.764706" fill="#C1CAF8"/>
<rect x="32.647" y="29.8237" width="5.35294" height="1.52941" rx="0.764706" fill="#7C90F3"/>
<rect x="26.5294" y="16.8232" width="11.4706" height="1.52941" rx="0.764706" fill="#7C90F3"/>
<rect x="32.647" y="33.647" width="5.35294" height="1.52941" rx="0.764706" fill="#C1CAF8"/>
<rect x="32.647" y="20.647" width="5.35294" height="1.52941" rx="0.764706" fill="#C1CAF8"/>
<path d="M21.9412 13L12 22.9412H17.1029C19.775 22.9412 21.9412 20.775 21.9412 18.1029V13Z" fill="#BCC7FF"/>
<defs>
<filter id="filter0_d" x="11.3088" y="12.3088" width="31.0589" height="28.7647" filterUnits="userSpaceOnUse" color-interpolation-filters="sRGB">
<feFlood flood-opacity="0" result="BackgroundImageFix"/>
<feColorMatrix in="SourceAlpha" type="matrix" values="0 0 0 0 0 0 0 0 0 0 0 0 0 0 0 0 0 0 127 0"/>
<feOffset dx="0.691183" dy="0.691183"/>
<feGaussianBlur stdDeviation="0.691183"/>
<feColorMatrix type="matrix" values="0 0 0 0 0 0 0 0 0 0 0 0 0 0 0 0 0 0 0.12 0"/>
<feBlend mode="normal" in2="BackgroundImageFix" result="effect1_dropShadow"/>
<feBlend mode="normal" in="SourceGraphic" in2="effect1_dropShadow" result="shape"/>
</filter>
</defs>
</svg>
